<svg id="icon-editor" xmlns="http://www.w3.org/2000/svg" width="40" height="40" viewBox="0 0 40 40">
  <defs>
    <style>
      .cls-1 {
        fill: none;
      }

      .cls-2 {
        fill: #5e81ac;
      }
    </style>
  </defs>
  <rect id="長方形_95" data-name="長方形 95" class="cls-1" width="40" height="40"/>
  <rect id="長方形_96" data-name="長方形 96" class="cls-2" width="12.747" height="4.237" rx="2.118" transform="matrix(0.643, -0.766, 0.766, 0.643, 24.704, 14.37)"/>
  <path id="パス_35" data-name="パス 35" class="cls-2" d="M1122.469,769.076l.854-2.9a.79.79,0,0,1,1.266-.382l1.849,1.552a.79.79,0,0,1-.156,1.313l-2.7,1.344A.79.79,0,0,1,1122.469,769.076Z" transform="translate(-1099.874 -750.224)"/>
  <path id="パス_36" data-name="パス 36" class="cls-2" d="M447.806,512.894h-18.02a3.162,3.162,0,0,1-3.216-3.1V493.1a3.161,3.161,0,0,1,3.216-3.1l11.8.009a1.186,1.186,0,1,1,0,2.372h0l-11.8-.009a.791.791,0,0,0-.842.725v16.7a.792.792,0,0,0,.844.725h18.02a.793.793,0,0,0,.844-.725l.009-12.982a1.186,1.186,0,0,1,1.186-1.186h0a1.186,1.186,0,0,1,1.186,1.186L451.02,509.8A3.16,3.16,0,0,1,447.806,512.894Z" transform="translate(-417.996 -480.151)"/>
</svg>
