<svg xmlns="http://www.w3.org/2000/svg" width="40" height="40" viewBox="0 0 40 40">
  <defs>
    <style>
      .cls-1 {
        fill: none;
      }

      .cls-2 {
        fill: #5e81ac;
      }
    </style>
  </defs>
  <g id="icon-document" transform="translate(0.02)">
    <rect id="長方形_91" data-name="長方形 91" class="cls-1" width="40" height="40" transform="translate(-0.02)"/>
    <path id="パス_31" data-name="パス 31" class="cls-2" d="M412.521,314.452a1.3,1.3,0,0,1,1.3,1.3V336.6a1.3,1.3,0,0,1-1.3,1.3H394.838a1.3,1.3,0,0,1-1.3-1.3V315.748a1.3,1.3,0,0,1,1.3-1.3h17.683m0-2.042H394.838a3.338,3.338,0,0,0-3.338,3.337V336.6a3.338,3.338,0,0,0,3.338,3.338h17.683a3.338,3.338,0,0,0,3.338-3.338V315.748a3.338,3.338,0,0,0-3.338-3.338Z" transform="translate(-383.764 -306.157)"/>
    <rect id="長方形_92" data-name="長方形 92" width="15.097" height="0.482" rx="0.241" transform="translate(12.367 12.366)"/>
    <path id="パス_32" data-name="パス 32" class="cls-2" d="M599.187,578.36H584.271a.881.881,0,0,0-.881.881v.3a.881.881,0,0,0,.881.881h14.916a.881.881,0,0,0,.881-.881v-.3A.881.881,0,0,0,599.187,578.36Z" transform="translate(-571.813 -566.784)"/>
    <rect id="長方形_93" data-name="長方形 93" width="15.182" height="0.567" rx="0.283" transform="translate(12.325 16.992)"/>
    <path id="パス_33" data-name="パス 33" class="cls-2" d="M599.187,811.56H584.271a.881.881,0,0,0-.881.881v.3a.881.881,0,0,0,.881.881h14.916a.881.881,0,0,0,.881-.881v-.3A.881.881,0,0,0,599.187,811.56Z" transform="translate(-571.813 -795.316)"/>
    <rect id="長方形_94" data-name="長方形 94" width="8.99" height="0.611" rx="0.306" transform="translate(12.302 21.602)"/>
    <path id="パス_34" data-name="パス 34" class="cls-2" d="M592.95,1043h-8.679a.881.881,0,0,0-.881.881v.3a.881.881,0,0,0,.881.881h8.679a.881.881,0,0,0,.881-.881v-.3A.881.881,0,0,0,592.95,1043Z" transform="translate(-571.813 -1022.124)"/>
  </g>
</svg>
